HIERARCHY
ROOT Hips
{
    OFFSET 0.000000 0.000000 0.000000
    CHANNELS 6 Xposition Yposition Zposition Zrotation Xrotation Yrotation
    JOINT Spine
    {
        OFFSET 0.000000 7.886464 -0.000001
        CHANNELS 3 Zrotation Xrotation Yrotation
        JOINT Spine1
        {
            OFFSET 0.000000 20.489058 0.000000
            CHANNELS 3 Zrotation Xrotation Yrotation
            JOINT Neck
            {
                OFFSET -0.000000 22.473160 0.000000
                CHANNELS 3 Zrotation Xrotation Yrotation
                JOINT Head
                {
                    OFFSET 0.000001 14.979940 1.928071
                    CHANNELS 3 Zrotation Xrotation Yrotation
                    End Site
                    {
                        OFFSET 0.000000 19.280720 0.000000
                    }
                }
            }
            JOINT LeftShoulder
            {
                OFFSET 3.844441 15.098611 -0.914976
                CHANNELS 3 Zrotation Xrotation Yrotation
                JOINT LeftArm
                {
                    OFFSET 14.878088 -0.000004 0.000000
                    CHANNELS 3 Zrotation Xrotation Yrotation
                    JOINT LeftForeArm
                    {
                        OFFSET 23.033365 -0.000001 -0.000003
                        CHANNELS 3 Zrotation Xrotation Yrotation
                        JOINT LeftHand
                        {
                            OFFSET 26.550747 0.000000 -0.000001
                            CHANNELS 3 Zrotation Xrotation Yrotation
                            JOINT LeftHandThumb1
                            {
                                OFFSET 2.014836 -2.289586 3.205416
                                CHANNELS 3 Zrotation Xrotation Yrotation
                                JOINT LeftHandThumb2
                                {
                                    OFFSET 3.043104 0.000003 -0.000001
                                    CHANNELS 3 Zrotation Xrotation Yrotation
                                    JOINT LeftHandThumb3
                                    {
                                        OFFSET 2.600965 0.000000 -0.000002
                                        CHANNELS 3 Zrotation Xrotation Yrotation
                                        End Site
                                        {
                                            OFFSET 2.507429 0.000000 0.000000
                                        }
                                    }
                                }
                            }
                            JOINT LeftHandIndex1
                            {
                                OFFSET 8.242503 0.000000 3.205419
                                CHANNELS 3 Zrotation Xrotation Yrotation
                                JOINT LeftHandIndex2
                                {
                                    OFFSET 4.579170 -0.000001 -0.000002
                                    CHANNELS 3 Zrotation Xrotation Yrotation
                                    JOINT LeftHandIndex3
                                    {
                                        OFFSET 2.289583 0.000001 -0.000000
                                        CHANNELS 3 Zrotation Xrotation Yrotation
                                        End Site
                                        {
                                            OFFSET 2.207237 0.000000 0.000000
                                        }
                                    }
                                }
                            }
                            JOINT LeftHandMiddle1
                            {
                                OFFSET 8.242503 0.000001 1.062368
                                CHANNELS 3 Zrotation Xrotation Yrotation
                                JOINT LeftHandMiddle2
                                {
                                    OFFSET 5.037087 -0.000003 0.000000
                                    CHANNELS 3 Zrotation Xrotation Yrotation
                                    JOINT LeftHandMiddle3
                                    {
                                        OFFSET 2.747499 0.000001 -0.000001
                                        CHANNELS 3 Zrotation Xrotation Yrotation
                                        End Site
                                        {
                                            OFFSET 2.648689 0.000000 0.000000
                                        }
                                    }
                                }
                            }
                            JOINT LeftHandRing1
                            {
                                OFFSET 7.784586 0.000000 -1.062368
                                CHANNELS 3 Zrotation Xrotation Yrotation
                                JOINT LeftHandRing2
                                {
                                    OFFSET 4.579170 -0.000001 -0.000002
                                    CHANNELS 3 Zrotation Xrotation Yrotation
                                    JOINT LeftHandRing3
                                    {
                                        OFFSET 2.289583 0.000001 0.000000
                                        CHANNELS 3 Zrotation Xrotation Yrotation
                                        End Site
                                        {
                                            OFFSET 2.207237 0.000000 0.000000
                                        }
                                    }
                                }
                            }
                            JOINT LeftHandPinky1
                            {
                                OFFSET 7.326668 0.000001 -3.205416
                                CHANNELS 3 Zrotation Xrotation Yrotation
                                JOINT LeftHandPinky2
                                {
                                    OFFSET 3.663335 -0.000001 0.000000
                                    CHANNELS 3 Zrotation Xrotation Yrotation
                                    JOINT LeftHandPinky3
                                    {
                                        OFFSET 1.831665 0.000001 0.000002
                                        CHANNELS 3 Zrotation Xrotation Yrotation
                                        End Site
                                        {
                                            OFFSET 1.765796 0.000000 0.000000
                                        }
                                    }
                                }
                            }
                        }
                    }
                }
            }
            JOINT RightShoulder
            {
                OFFSET -3.844440 15.098614 -0.914975
                CHANNELS 3 Zrotation Xrotation Yrotation
                JOINT RightArm
                {
                    OFFSET -14.878090 -0.000005 -0.000001
                    CHANNELS 3 Zrotation Xrotation Yrotation
                    JOINT RightForeArm
                    {
                        OFFSET -23.033379 0.000004 -0.000002
                        CHANNELS 3 Zrotation Xrotation Yrotation
                        JOINT RightHand
                        {
                            OFFSET -26.550747 0.000001 0.000000
                            CHANNELS 3 Zrotation Xrotation Yrotation
                            JOINT RightHandThumb1
                            {
                                OFFSET -2.014835 -2.289583 3.205420
                                CHANNELS 3 Zrotation Xrotation Yrotation
                                JOINT RightHandThumb2
                                {
                                    OFFSET -3.043108 -0.000000 -0.000002
                                    CHANNELS 3 Zrotation Xrotation Yrotation
                                    JOINT RightHandThumb3
                                    {
                                        OFFSET -2.600970 0.000001 -0.000001
                                        CHANNELS 3 Zrotation Xrotation Yrotation
                                        End Site
                                        {
                                            OFFSET -2.507429 0.000000 0.000000
                                        }
                                    }
                                }
                            }
                            JOINT RightHandIndex1
                            {
                                OFFSET -8.242503 0.000000 3.205418
                                CHANNELS 3 Zrotation Xrotation Yrotation
                                JOINT RightHandIndex2
                                {
                                    OFFSET -4.579170 -0.000001 -0.000001
                                    CHANNELS 3 Zrotation Xrotation Yrotation
                                    JOINT RightHandIndex3
                                    {
                                        OFFSET -2.289584 0.000004 -0.000000
                                        CHANNELS 3 Zrotation Xrotation Yrotation
                                        End Site
                                        {
                                            OFFSET -2.207237 0.000000 0.000000
                                        }
                                    }
                                }
                            }
                            JOINT RightHandMiddle1
                            {
                                OFFSET -8.242506 -0.000001 1.062368
                                CHANNELS 3 Zrotation Xrotation Yrotation
                                JOINT RightHandMiddle2
                                {
                                    OFFSET -5.037084 -0.000001 0.000000
                                    CHANNELS 3 Zrotation Xrotation Yrotation
                                    JOINT RightHandMiddle3
                                    {
                                        OFFSET -2.747503 0.000001 0.000001
                                        CHANNELS 3 Zrotation Xrotation Yrotation
                                        End Site
                                        {
                                            OFFSET -2.648689 0.000000 0.000000
                                        }
                                    }
                                }
                            }
                            JOINT RightHandRing1
                            {
                                OFFSET -7.784589 -0.000001 -1.062368
                                CHANNELS 3 Zrotation Xrotation Yrotation
                                JOINT RightHandRing2
                                {
                                    OFFSET -4.579170 -0.000001 -0.000001
                                    CHANNELS 3 Zrotation Xrotation Yrotation
                                    JOINT RightHandRing3
                                    {
                                        OFFSET -2.289584 0.000003 0.000001
                                        CHANNELS 3 Zrotation Xrotation Yrotation
                                        End Site
                                        {
                                            OFFSET -2.207237 0.000000 0.000000
                                        }
                                    }
                                }
                            }
                            JOINT RightHandPinky1
                            {
                                OFFSET -7.326672 0.000000 -3.205418
                                CHANNELS 3 Zrotation Xrotation Yrotation
                                JOINT RightHandPinky2
                                {
                                    OFFSET -3.663337 0.000000 -0.000001
                                    CHANNELS 3 Zrotation Xrotation Yrotation
                                    JOINT RightHandPinky3
                                    {
                                        OFFSET -1.831667 -0.000002 -0.000002
                                        CHANNELS 3 Zrotation Xrotation Yrotation
                                        End Site
                                        {
                                            OFFSET -1.765796 0.000000 0.000000
                                        }
                                    }
                                }
                            }
                        }
                    }
                }
            }
        }
    }
    JOINT LeftUpLeg
    {
        OFFSET 9.640355 -0.000001 0.000000
        CHANNELS 3 Zrotation Xrotation Yrotation
        JOINT LeftLeg
        {
            OFFSET 0.000000 -44.988789 0.000000
            CHANNELS 3 Zrotation Xrotation Yrotation
            JOINT LeftFoot
            {
                OFFSET 0.000002 -43.132160 -0.000001
                CHANNELS 3 Zrotation Xrotation Yrotation
                JOINT LeftToeBase
                {
                    OFFSET 0.000001 -6.266231 14.460537
                    CHANNELS 3 Zrotation Xrotation Yrotation
                    End Site
                    {
                        OFFSET 0.000000 0.000000 3.856144
                    }
                }
            }
        }
    }
    JOINT RightUpLeg
    {
        OFFSET -9.640355 0.000001 0.000000
        CHANNELS 3 Zrotation Xrotation Yrotation
        JOINT RightLeg
        {
            OFFSET -0.000001 -44.988789 -0.000000
            CHANNELS 3 Zrotation Xrotation Yrotation
            JOINT RightFoot
            {
                OFFSET 0.000001 -43.132156 -0.000001
                CHANNELS 3 Zrotation Xrotation Yrotation
                JOINT RightToeBase
                {
                    OFFSET 0.000001 -6.266231 14.460534
                    CHANNELS 3 Zrotation Xrotation Yrotation
                    End Site
                    {
                        OFFSET 0.000000 0.000000 3.856144
                    }
                }
            }
        }
    }
}
MOTION
Frames:    4
Frame Time:    0.002778
3.548090    93.905640    8.021101    -5.188550    0.675592    91.325241    -0.612341    -5.744786    0.986346    -0.141624    -1.100263    1.044928    1.352458    8.077529    4.307250    1.634356    5.482373    4.341138    0.536518    -0.000000    9.867273    -50.932739    17.988571    -4.496907    -79.335724    -43.874825    -82.564232    87.972000    -0.029142    28.385828    28.711109    36.270767    -42.795135    -22.867790    -4.684816    22.867788    -0.000000    0.000000    -0.000000    -0.000000    18.000002    -0.000000    -0.000000    0.000000    -0.000000    -0.000000    0.000000    -0.000000    -0.000000    0.000000    -0.000000    -0.000000    0.000000    -0.000000    -0.000000    0.000000    -0.000000    -0.000000    0.000000    -0.000000    -0.000000    0.000000    -0.000000    -0.000000    0.000000    -0.000000    0.000004    -18.000002    0.000001    -0.000000    0.000000    -0.000000    -0.000000    0.000000    -0.000000    9.687716    -0.000000    -8.297015    50.187012    15.890587    3.336608    0.678593    -28.664480    1.414469    -2.643805    -0.286411    5.231377    -28.711103    36.270756    42.795135    22.867790    -4.684817    -22.867788    -0.000000    0.000000    -0.000000    0.000004    18.000008    0.000006    -0.000000    0.000000    -0.000000    -0.000000    0.000000    -0.000000    -0.000000    0.000000    -0.000000    -0.000000    0.000000    -0.000000    -0.000000    0.000000    -0.000000    -0.000000    0.000000    -0.000000    -0.000000    0.000000    -0.000000    -0.000000    0.000000    -0.000000    0.000009    -18.000008    0.000007    -0.000000    0.000000    -0.000000    -0.000000    0.000000    -0.000000    4.977564    -8.224714    3.874360    -0.000001    17.559639    0.000000    -5.547699    -15.806714    14.220724    -0.000000    -0.301472    0.000001    -4.665064    -5.795431    -3.355048    -0.000000    11.015271    -0.000002    3.269559    -14.806186    -3.843085    0.000000    1.810166    0.000007    
3.552917    93.904190    8.023241    -5.194241    0.675568    91.322372    -0.611382    -5.741994    0.989050    -0.141360    -1.096553    1.047530    1.357395    8.072145    4.307525    1.637554    5.476531    4.341841    0.537372    -0.000000    9.861978    -50.935345    17.987511    -4.497230    -79.343224    -43.871117    -82.570007    87.991028    -0.028869    28.390574    28.711109    36.270771    -42.795139    -22.867796    -4.684814    22.867794    -0.000000    0.000000    -0.000000    -0.000003    18.000004    -0.000001    -0.000000    0.000000    -0.000000    -0.000000    0.000000    -0.000000    -0.000000    0.000000    -0.000000    -0.000000    0.000000    -0.000000    -0.000000    0.000000    -0.000000    -0.000000    0.000000    -0.000000    -0.000000    0.000000    -0.000000    -0.000000    0.000000    -0.000000    0.000004    -18.000002    0.000002    -0.000000    0.000000    -0.000000    -0.000000    0.000000    -0.000000    9.693253    0.000001    -8.288467    50.184479    15.892098    3.340547    0.675529    -28.658182    1.408353    -2.619915    -0.286361    5.214695    -28.711109    36.270763    42.795139    22.867790    -4.684813    -22.867786    -0.000000    0.000000    -0.000000    -0.000005    18.000006    0.000009    -0.000000    0.000000    -0.000000    -0.000000    0.000000    -0.000000    -0.000000    0.000000    -0.000000    -0.000000    0.000000    -0.000000    -0.000000    0.000000    -0.000000    -0.000000    0.000000    -0.000000    -0.000000    0.000000    -0.000000    -0.000000    0.000000    -0.000000    0.000005    -18.000002    0.000004    -0.000000    0.000000    -0.000000    -0.000000    0.000000    -0.000000    4.977691    -8.230223    3.872129    0.000002    17.569387    -0.000011    -5.535640    -15.801649    14.209012    -0.000000    -0.312273    0.000000    -4.664115    -5.812861    -3.354043    0.000001    11.044048    -0.000010    3.267589    -14.818862    -3.842415    0.000000    1.808373    -0.000009    
3.558305    93.903358    8.026239    -5.200418    0.675205    91.320679    -0.612255    -5.738659    0.991421    -0.140181    -1.092046    1.049956    1.361247    8.063266    4.304746    1.643478    5.471162    4.338978    0.542327    0.000000    9.855479    -50.934658    17.985397    -4.501418    -79.347076    -43.865917    -82.573433    88.011200    -0.028575    28.392500    28.711109    36.270771    -42.795135    -22.867786    -4.684811    22.867792    -0.000000    0.000000    -0.000000    -0.000000    18.000006    -0.000000    -0.000000    0.000000    -0.000000    -0.000000    0.000000    -0.000000    -0.000000    0.000000    -0.000000    -0.000000    0.000000    -0.000000    -0.000000    0.000000    -0.000000    -0.000000    0.000000    -0.000000    -0.000000    0.000000    -0.000000    -0.000000    0.000000    -0.000000    0.000000    -17.999998    0.000002    -0.000000    0.000000    -0.000000    -0.000000    0.000000    -0.000000    9.701015    0.000001    -8.278829    50.182083    15.896656    3.340050    0.677600    -28.640354    1.413490    -2.614863    -0.286182    5.242591    -28.711109    36.270767    42.795139    22.867794    -4.684812    -22.867785    -0.000000    0.000000    -0.000000    -0.000001    18.000006    0.000007    -0.000000    0.000000    -0.000000    -0.000000    0.000000    -0.000000    -0.000000    0.000000    -0.000000    -0.000000    0.000000    -0.000000    -0.000000    0.000000    -0.000000    -0.000000    0.000000    -0.000000    -0.000000    0.000000    -0.000000    -0.000000    0.000000    -0.000000    -0.000002    -18.000006    0.000002    -0.000000    0.000000    -0.000000    -0.000000    0.000000    -0.000000    4.980979    -8.238537    3.883001    0.000002    17.573898    -0.000002    -5.532184    -15.807448    14.225458    0.000000    -0.323228    0.000006    -4.662651    -5.828124    -3.351488    0.000000    11.067588    -0.000005    3.258435    -14.837459    -3.840675    0.000000    1.807170    -0.000004    
3.564846    93.902573    8.029924    -5.207369    0.675025    91.317757    -0.612591    -5.737185    0.993337    -0.140233    -1.087132    1.051925    1.365190    8.053637    4.301791    1.649370    5.463834    4.335998    0.543080    0.000000    9.851272    -50.937096    17.985207    -4.498782    -79.345879    -43.868023    -82.572304    88.017838    -0.028484    28.391258    28.711109    36.270767    -42.795135    -22.867790    -4.684816    22.867790    -0.000000    0.000000    -0.000000    0.000004    18.000006    -0.000001    -0.000000    0.000000    -0.000000    -0.000000    0.000000    -0.000000    -0.000000    0.000000    -0.000000    -0.000000    0.000000    -0.000000    -0.000000    0.000000    -0.000000    -0.000000    0.000000    -0.000000    -0.000000    0.000000    -0.000000    -0.000000    0.000000    -0.000000    0.000000    -18.000004    0.000000    -0.000000    0.000000    -0.000000    -0.000000    0.000000    -0.000000    9.708694    -0.000001    -8.269955    50.181759    15.901236    3.337510    0.679053    -28.624056    1.417258    -2.610326    -0.286017    5.267478    -28.711113    36.270767    42.795139    22.867790    -4.684812    -22.867786    -0.000000    0.000000    -0.000000    0.000004    18.000002    -0.000001    -0.000000    0.000000    -0.000000    -0.000000    0.000000    -0.000000    -0.000000    0.000000    -0.000000    -0.000000    0.000000    -0.000000    -0.000000    0.000000    -0.000000    -0.000000    0.000000    -0.000000    -0.000000    0.000000    -0.000000    -0.000000    0.000000    -0.000000    -0.000005    -18.000010    -0.000003    -0.000000    0.000000    -0.000000    -0.000000    0.000000    -0.000000    4.982856    -8.242282    3.875281    0.000000    17.585543    0.000006    -5.526418    -15.806784    14.220977    0.000000    -0.333061    0.000005    -4.660955    -5.844243    -3.343735    -0.000001    11.091426    -0.000001    3.248196    -14.848462    -3.840034    -0.000000    1.805782    -0.000004    
